#tb 0: 100/2997
#media_type 0: video
#codec_id 0: rawvideo
#dimensions 0: 1416x1062
#sar 0: 4/3
0,          0,          0,        1,  2255688, 0x48f3973d
0,          1,          1,        1,  2255688, 0x48f3973d
0,          2,          2,        1,  2255688, 0x8c9f3c83
0,          3,          3,        1,  2255688, 0xb89c02e3
0,          4,          4,        1,  2255688, 0x185b1a84
0,          5,          5,        1,  2255688, 0x82167715
0,          6,          6,        1,  2255688, 0xe675971e
0,          7,          7,        1,  2255688, 0x623759db
0,          8,          8,        1,  2255688, 0x910274ad
0,          9,          9,        1,  2255688, 0x0eafce15
0,         10,         10,        1,  2255688, 0x4457b006
0,         11,         11,        1,  2255688, 0x48f70e0b
0,         12,         12,        1,  2255688, 0xfd269c3d
0,         13,         13,        1,  2255688, 0x4c6258ad
0,         14,         14,        1,  2255688, 0xb131c4af
